<svg width="50" height="50" viewBox="0 0 50 50" fill="none" xmlns="http://www.w3.org/2000/svg">
<path d="M16.6665 16.6667L16.6665 14.5833C16.6665 9.98096 20.3975 6.25 24.9998 6.25V6.25C29.6022 6.25 33.3332 9.98096 33.3332 14.5833L33.3332 16.6667" stroke="#242424" stroke-width="2" stroke-linecap="round"/>
<path d="M31.25 29.1667V25" stroke="#242424" stroke-width="2" stroke-linecap="round"/>
<path d="M18.75 29.1667V25" stroke="#242424" stroke-width="2" stroke-linecap="round"/>
<path d="M8.3335 20.6667C8.3335 18.781 8.3335 17.8382 8.91928 17.2525C9.50507 16.6667 10.4479 16.6667 12.3335 16.6667H37.6668C39.5524 16.6667 40.4953 16.6667 41.081 17.2525C41.6668 17.8382 41.6668 18.781 41.6668 20.6667V35.75C41.6668 39.5212 41.6668 41.4069 40.4953 42.5784C39.3237 43.75 37.4381 43.75 33.6668 43.75H16.3335C12.5623 43.75 10.6766 43.75 9.50507 42.5784C8.3335 41.4069 8.3335 39.5212 8.3335 35.75V20.6667Z" stroke="#242424" stroke-width="2"/>
</svg>
