<svg width="50" height="50" viewBox="0 0 50 50" fill="none" xmlns="http://www.w3.org/2000/svg">
<path d="M31.25 41.6667H9.45C8.3299 41.6667 7.76984 41.6667 7.34202 41.4487C6.96569 41.2569 6.65973 40.951 6.46799 40.5746C6.25 40.1468 6.25 39.5868 6.25 38.4667V11.5333C6.25 10.4132 6.25 9.85318 6.46799 9.42535C6.65973 9.04903 6.96569 8.74307 7.34202 8.55132C7.76984 8.33334 8.32989 8.33334 9.45 8.33334H17.4245C17.9137 8.33334 18.1583 8.33334 18.3885 8.3886C18.5925 8.43759 18.7876 8.5184 18.9666 8.62806C19.1684 8.75174 19.3414 8.92469 19.6873 9.27059L21.9794 11.5627C22.3253 11.9086 22.4983 12.0816 22.7001 12.2053C22.879 12.3149 23.0741 12.3957 23.2782 12.4447C23.5084 12.5 23.753 12.5 24.2421 12.5H32.2167C33.3368 12.5 33.8968 12.5 34.3246 12.718C34.701 12.9097 35.0069 13.2157 35.1987 13.592C35.4167 14.0198 35.4167 14.5799 35.4167 15.7V19.7917" stroke="#242424" stroke-width="2" stroke-linecap="round"/>
<path d="M11.8158 23.1138C12.0613 22.2955 12.1841 21.8864 12.427 21.5831C12.6414 21.3154 12.9211 21.1073 13.2392 20.9788C13.5995 20.8333 14.0266 20.8333 14.8809 20.8333H39.4491C40.9067 20.8333 41.6356 20.8333 42.122 21.1374C42.5481 21.4037 42.8583 21.8207 42.9909 22.3053C43.1424 22.8586 42.933 23.5567 42.5141 24.9529L38.1842 39.3854C37.9387 40.2036 37.8159 40.6127 37.573 40.916C37.3586 41.1838 37.0789 41.3919 36.7608 41.5203C36.4005 41.6658 35.9734 41.6658 35.1191 41.6658H8.40047C7.67163 41.6658 7.30721 41.6658 7.06398 41.5138C6.85096 41.3806 6.69587 41.1722 6.62954 40.9299C6.5538 40.6532 6.65852 40.3042 6.86796 39.6061L11.8158 23.1138Z" stroke="#242424" stroke-width="2"/>
<path d="M18.75 31.25L31.25 31.25" stroke="#242424" stroke-width="2" stroke-linecap="round"/>
</svg>
